<svg xmlns="http://www.w3.org/2000/svg" version="1.0" width="500.000000pt" height="500.000000pt" viewBox="0 0 500.000000 500.000000" preserveAspectRatio="xMidYMid meet">

<g transform="translate(0.000000,500.000000) scale(0.100000,-0.100000)" fill="#7e1ee5" stroke="none">
<path d="M1845 4094 c-376 -21 -632 -100 -705 -219 -24 -38 -26 -104 -6 -144 42 -81 208 -165 396 -201 388 -74 893 -42 1135 74 183 86 226 203 118 314 -50 51 -204 115 -343 141 -149 28 -428 44 -595 35z m420 -168 c144 -16 159 -19 260 -49 78 -23 145 -60 145 -81 0 -41 -129 -92 -310 -122 -150 -26 -600 -26 -750 -1 -114 19 -146 27 -230 59 -53 20 -100 53 -100 70 0 13 71 53 120 67 25 7 56 17 70 21 131 42 556 61 795 36z" fill="#7e1ee5"/>
<path d="M3612 3949 c-195 -50 -367 -186 -452 -358 -41 -81 -56 -133 -71 -241 l-13 -89 -36 19 c-62 32 -139 41 -209 24 -172 -40 -264 -191 -263 -429 0 -176 48 -292 153 -371 68 -52 105 -64 193 -64 83 0 134 20 196 76 72 66 101 118 131 241 l13 52 45 -42 c25 -23 74 -60 108 -82 l63 -40 0 -132 c0 -125 1 -133 20 -133 10 0 68 42 128 93 l108 94 79 6 c183 16 333 78 446 185 153 144 229 314 229 512 0 141 -42 275 -125 400 -155 233 -467 351 -743 279z m351 -288 c154 -73 247 -219 247 -387 0 -232 -168 -414 -397 -431 -171 -13 -333 78 -408 230 -65 131 -68 259 -10 382 54 114 164 207 278 236 18 4 75 7 127 5 83 -2 104 -7 163 -35z m-1010 -520 c88 -34 142 -197 117 -348 -27 -154 -129 -233 -226 -174 -78 48 -107 125 -102 272 3 87 7 113 30 161 39 85 106 117 181 89z" fill="#7e1ee5"/>
<path d="M3660 3521 c-112 -35 -175 -119 -174 -237 0 -58 4 -78 27 -117 32 -55 94 -99 159 -115 101 -25 214 32 263 133 24 48 27 64 23 118 -12 151 -161 259 -298 218z" fill="#7e1ee5"/>
<path d="M651 3296 c-8 -9 -10 -130 -9 -427 l3 -413 32 -8 c17 -4 55 -5 85 0 l53 7 3 160 c2 112 6 161 15 167 6 4 57 8 112 8 55 0 106 -4 112 -8 9 -6 13 -55 15 -167 l3 -159 41 -8 c22 -5 58 -5 80 0 l39 8 3 419 c2 328 0 420 -10 427 -15 9 -119 11 -142 2 -14 -5 -16 -30 -16 -170 l0 -164 -125 0 -125 0 0 158 c0 110 -4 162 -12 170 -17 17 -142 16 -157 -2z" fill="#7e1ee5"/>
<path d="M1632 3303 c-37 -4 -45 -9 -57 -36 -12 -26 -58 -183 -146 -502 -6 -22 -15 -51 -19 -65 -4 -14 -13 -45 -20 -70 -7 -25 -19 -64 -26 -88 -8 -23 -14 -54 -14 -68 0 -25 0 -25 81 -22 91 3 88 1 112 83 l14 50 133 0 133 0 16 -55 c9 -30 20 -61 24 -67 10 -15 153 -18 162 -4 7 13 4 26 -109 421 -53 184 -100 352 -106 372 -6 20 -14 39 -19 42 -13 9 -112 14 -159 9z m92 -345 c15 -51 32 -106 37 -122 5 -16 9 -40 9 -52 0 -23 -3 -24 -80 -24 -62 0 -80 3 -80 14 0 15 44 190 61 244 6 17 14 32 18 32 4 0 20 -42 35 -92z" fill="#7e1ee5"/>
<path d="M2130 3294 c-7 -7 -9 -166 -8 -425 l3 -414 195 0 195 0 3 71 c2 50 -1 74 -11 82 -7 6 -58 13 -113 14 l-99 3 -3 337 -2 336 -29 7 c-42 9 -120 3 -131 -11z" fill="#7e1ee5"/>
<path d="M2925 2299 c-156 -54 -271 -178 -314 -337 -31 -114 -28 -183 11 -317 34 -114 119 -210 245 -275 88 -45 237 -47 330 -4 34 16 100 62 128 89 20 19 71 100 83 130 21 55 33 149 30 225 l-3 75 -200 0 -200 0 0 -85 0 -85 108 -2 c60 0 111 -4 114 -7 3 -3 0 -20 -8 -38 -38 -96 -102 -138 -207 -138 -121 0 -188 45 -239 158 -33 76 -33 190 3 269 29 66 53 95 109 131 35 23 51 26 125 27 95 0 116 -9 182 -78 l37 -39 33 19 c18 11 50 30 71 42 23 14 37 30 37 43 0 33 -111 135 -187 171 -60 28 -79 32 -163 34 -52 1 -108 -2 -125 -8z" fill="#7e1ee5"/>
<path d="M3820 2288 c-135 -51 -220 -145 -277 -305 -13 -35 -17 -79 -17 -163 1 -100 4 -124 27 -183 118 -303 450 -399 681 -196 271 239 188 728 -144 849 -75 27 -195 27 -270 -2z m214 -179 c52 -14 119 -79 147 -142 34 -74 34 -210 1 -282 -48 -105 -122 -155 -229 -155 -75 0 -104 13 -162 71 -53 53 -74 110 -79 215 -4 87 -3 95 28 159 57 119 167 169 294 134z" fill="#7e1ee5"/>
<path d="M653 2279 c-10 -10 -13 -116 -13 -460 0 -383 2 -448 15 -459 21 -18 415 -8 467 11 117 44 172 125 172 249 0 90 -26 146 -91 196 l-42 32 26 23 c121 113 80 320 -77 393 -40 19 -67 21 -245 24 -151 3 -203 0 -212 -9z m370 -181 c34 -18 46 -40 47 -85 0 -36 -5 -46 -33 -67 -30 -23 -43 -26 -119 -26 -60 0 -87 4 -90 13 -2 6 -2 49 0 95 l4 82 84 0 c47 0 95 -5 107 -12z m37 -376 c69 -34 64 -129 -9 -170 -32 -18 -55 -22 -130 -22 l-91 0 0 33 c-1 17 -3 58 -7 89 -8 88 -9 88 104 88 73 0 107 -4 133 -18z" fill="#7e1ee5"/>
<path d="M1432 2278 c-19 -19 -17 -901 2 -917 9 -8 43 -11 93 -9 l78 3 0 465 0 465 -80 3 c-54 2 -84 -1 -93 -10z" fill="#7e1ee5"/>
<path d="M1783 2283 c-10 -4 -13 -106 -13 -463 0 -408 2 -459 16 -464 28 -11 150 -6 162 6 9 9 12 85 12 280 0 147 3 268 8 268 7 0 60 -86 160 -260 123 -214 164 -281 182 -290 29 -15 145 -13 159 4 8 9 10 140 9 467 l-3 454 -85 0 -85 0 -5 -280 c-3 -182 -9 -278 -15 -275 -10 5 -143 228 -249 420 -82 146 -75 140 -165 139 -42 0 -82 -3 -88 -6z" fill="#7e1ee5"/>
</g>
</svg>